<?xml version="1.0" standalone="no"?>
<!DOCTYPE svg PUBLIC "-//W3C//DTD SVG 20010904//EN"
 "http://www.w3.org/TR/2001/REC-SVG-20010904/DTD/svg10.dtd">
<svg version="1.0" xmlns="http://www.w3.org/2000/svg"
 width="640.000000pt" height="640.000000pt" viewBox="0 0 640.000000 640.000000"
 preserveAspectRatio="xMidYMid meet">

<g transform="translate(0.000000,640.000000) scale(0.100000,-0.100000)"
fill="#000000" stroke="none">
<path d="M0 3200 l0 -3200 3200 0 3200 0 0 115 0 115 -600 0 -600 0 0 160 0
160 600 0 600 0 0 2925 0 2925 -3200 0 -3200 0 0 -3200z m2380 2051 c0 -10
-11 -35 -25 -55 -14 -20 -25 -43 -25 -50 0 -7 -8 -28 -17 -46 -24 -50 -34
-101 -45 -246 -9 -133 0 -321 19 -394 15 -53 68 -162 92 -187 26 -27 44 -29
62 -7 32 38 152 119 244 164 103 50 227 89 350 110 77 13 289 9 370 -8 28 -5
73 -14 101 -20 111 -23 352 -148 409 -212 11 -12 33 -29 48 -37 27 -14 31 -13
54 9 28 26 72 106 85 158 34 125 42 352 19 495 -7 44 -15 105 -18 135 -3 30
-9 59 -14 65 -5 5 -9 15 -9 22 0 6 -11 29 -25 49 -29 43 -33 74 -7 74 18 0
119 -79 235 -184 50 -45 81 -84 118 -150 27 -49 49 -90 49 -92 0 -2 11 -27 24
-56 13 -29 29 -71 36 -93 7 -22 19 -57 27 -78 52 -145 47 -536 -7 -612 -4 -5
-10 -22 -14 -38 -11 -46 -66 -129 -129 -193 l-59 -62 13 -36 c7 -20 16 -36 20
-36 30 0 220 193 317 321 38 51 152 274 152 298 0 6 5 11 11 11 22 0 -7 -339
-42 -495 -56 -245 -47 -210 -99 -382 -30 -97 -34 -104 -93 -160 -105 -98 -239
-218 -248 -221 -5 -2 -9 -22 -9 -45 0 -56 -35 -123 -91 -177 -106 -100 -167
-222 -185 -370 -8 -64 -38 -103 -119 -151 -27 -17 -64 -41 -82 -53 -70 -50
-153 -181 -153 -241 0 -36 -4 -42 -52 -78 -52 -38 -170 -181 -201 -243 -32
-62 -36 -66 -122 -92 -156 -48 -343 -16 -398 69 -14 21 -28 48 -32 59 -3 11
-10 20 -15 20 -5 0 -16 13 -24 29 -9 16 -56 70 -106 120 -71 71 -90 96 -90
119 0 41 -56 138 -114 197 -28 29 -86 74 -129 100 -43 27 -82 54 -87 60 -5 6
-14 38 -20 70 -6 33 -13 74 -16 90 -6 30 -28 85 -68 163 -11 23 -51 75 -88
115 -76 82 -96 116 -108 190 -6 37 -14 55 -31 67 -36 23 -210 183 -248 229
-45 53 -60 80 -61 112 0 14 -3 29 -7 33 -11 10 -33 79 -33 102 0 11 -5 25 -10
30 -6 6 -13 21 -16 35 -2 13 -9 42 -14 64 -35 153 -42 188 -51 255 -18 135
-31 329 -25 347 7 16 9 15 26 -7 11 -14 20 -31 20 -38 0 -26 64 -148 119 -227
57 -83 292 -325 316 -325 7 0 19 16 25 35 12 35 11 36 -48 94 -33 32 -63 68
-67 80 -3 12 -10 21 -14 21 -7 0 -18 22 -52 105 -4 11 -13 38 -20 60 -6 22
-15 49 -20 60 -27 69 -27 363 1 430 4 11 14 47 21 80 7 33 16 65 19 70 4 6 13
28 20 50 16 51 83 185 125 250 30 45 144 157 201 195 12 8 45 34 74 58 56 46
80 53 80 23z m-1810 -4341 c0 -6 -68 -10 -185 -10 -117 0 -185 4 -185 10 0 6
68 10 185 10 117 0 185 -4 185 -10z m1240 0 c0 -5 -20 -10 -45 -10 -25 0 -45
5 -45 10 0 6 20 10 45 10 25 0 45 -4 45 -10z m570 0 c0 -5 -20 -10 -45 -10
-25 0 -45 5 -45 10 0 6 20 10 45 10 25 0 45 -4 45 -10z m-2220 -121 c0 -46 -4
-79 -10 -79 -6 0 -10 35 -10 86 0 54 4 83 10 79 6 -3 10 -42 10 -86z m1520 0
c0 -46 -4 -79 -10 -79 -6 0 -10 35 -10 86 0 54 4 83 10 79 6 -3 10 -42 10 -86z
m190 0 c0 -43 -4 -79 -9 -79 -9 0 -20 158 -12 166 13 13 21 -18 21 -87z
m-1235 19 c26 -56 31 -78 16 -78 -7 0 -61 111 -61 126 0 2 5 4 10 4 6 0 22
-24 35 -52z m1622 34 c-20 -22 -23 -92 -5 -110 6 -6 8 -15 4 -19 -13 -13 -46
38 -46 71 0 37 24 76 47 76 15 0 14 -2 0 -18z m181 -7 c23 -51 7 -125 -27
-125 -8 0 -7 9 4 30 19 37 19 61 0 86 -18 24 -19 34 -2 34 8 0 19 -11 25 -25z
m-1958 -125 c0 -5 -18 -10 -39 -10 -22 0 -43 5 -46 10 -4 6 12 10 39 10 25 0
46 -4 46 -10z m850 0 c0 -6 -83 -10 -229 -10 -143 0 -232 4 -236 10 -4 7 75
10 229 10 151 0 236 -4 236 -10z m290 0 c0 -5 -20 -10 -45 -10 -25 0 -45 5
-45 10 0 6 20 10 45 10 25 0 45 -4 45 -10z m470 0 c0 -6 -36 -10 -89 -10 -50
0 -93 5 -96 10 -4 6 28 10 89 10 57 0 96 -4 96 -10z m290 0 c0 -5 -20 -10 -45
-10 -25 0 -45 5 -45 10 0 6 20 10 45 10 25 0 45 -4 45 -10z m185 0 c-3 -5 -24
-10 -45 -10 -21 0 -42 5 -45 10 -4 6 13 10 45 10 32 0 49 -4 45 -10z m285 0
c0 -6 -36 -10 -89 -10 -50 0 -93 5 -96 10 -4 6 28 10 89 10 57 0 96 -4 96 -10z
m2476 -27 c6 -21 2 -30 -14 -41 -12 -8 -22 -23 -22 -33 0 -11 -4 -19 -10 -19
-6 0 -10 27 -10 60 0 57 1 60 25 60 18 0 26 -7 31 -27z m135 -28 c12 -53 6
-83 -10 -56 -6 9 -11 10 -15 2 -4 -6 -11 -9 -15 -7 -10 6 9 116 20 116 4 0 13
-25 20 -55z m157 -7 c3 -57 3 -57 -25 -55 -26 2 -28 6 -31 46 -4 57 3 73 30
69 20 -3 23 -10 26 -60z m142 52 c0 -5 -3 -10 -8 -10 -4 0 -8 -18 -8 -40 -1
-22 2 -40 7 -40 5 0 9 -4 9 -10 0 -16 -37 -11 -44 6 -8 21 -8 89 1 97 10 11
43 8 43 -3z m123 -12 l16 -23 0 23 c1 12 6 22 11 22 6 0 10 -27 10 -60 0 -58
-13 -79 -27 -44 -5 15 -7 15 -15 0 -18 -31 -28 -15 -28 44 0 64 8 73 33 38z
m187 12 c0 -5 -4 -10 -10 -10 -5 0 -10 -22 -10 -50 0 -27 -4 -50 -10 -50 -5 0
-10 20 -10 44 0 25 -4 48 -10 51 -20 12 -9 25 20 25 17 0 30 -4 30 -10z m123
-4 c3 -7 9 -35 13 -62 7 -46 6 -48 -10 -35 -15 13 -19 13 -27 0 -11 -17 -12
16 -3 74 7 38 18 48 27 23z m135 -39 c2 -26 7 -47 13 -47 5 0 9 -4 9 -10 0 -5
-11 -10 -25 -10 -24 0 -25 3 -25 61 0 74 23 79 28 6z m-6168 -62 c0 -50 -4
-85 -10 -85 -6 0 -10 35 -10 85 0 50 4 85 10 85 6 0 10 -35 10 -85z m190 0 c0
-50 -4 -85 -10 -85 -6 0 -10 35 -10 85 0 50 4 85 10 85 6 0 10 -35 10 -85z
m190 0 c0 -50 -4 -85 -10 -85 -6 0 -10 35 -10 85 0 50 4 85 10 85 6 0 10 -35
10 -85z m190 0 c0 -50 -4 -85 -10 -85 -6 0 -10 35 -10 85 0 50 4 85 10 85 6 0
10 -35 10 -85z m1520 -6 c0 -64 -3 -79 -15 -79 -12 0 -15 15 -15 78 0 43 3 82
6 85 17 16 24 -10 24 -84z m190 0 c0 -57 -3 -80 -12 -77 -11 4 -20 143 -11
161 13 23 23 -14 23 -84z m-570 47 c-15 -15 -33 4 -19 20 10 12 14 12 20 2 5
-7 4 -17 -1 -22z m760 8 c0 -8 -7 -14 -15 -14 -15 0 -21 21 -9 33 10 9 24 -2
24 -19z m-1780 12 c0 -6 -43 -98 -53 -114 -5 -7 -12 -10 -17 -7 -10 6 46 125
60 125 5 0 10 -2 10 -4z m358 -51 c38 -96 21 -103 -22 -9 -30 65 -30 64 -13
64 6 0 22 -25 35 -55z m172 45 c0 -6 11 -33 24 -60 13 -27 21 -52 16 -55 -11
-7 -24 12 -49 69 -25 58 -25 56 -6 56 8 0 15 -5 15 -10z m130 1 c0 -18 -52
-121 -61 -121 -15 0 -11 16 18 75 25 50 43 70 43 46z m174 -48 c-27 -61 -40
-80 -49 -71 -10 9 47 128 61 128 9 0 6 -16 -12 -57z m472 2 c26 -60 30 -80 13
-70 -8 6 -59 109 -59 121 0 2 5 4 11 4 5 0 21 -25 35 -55z m757 -3 c30 -64 32
-72 17 -72 -5 0 -19 21 -31 48 -12 26 -26 55 -31 65 -6 12 -5 17 5 17 7 0 26
-26 40 -58z m-1868 -92 c-3 -5 -24 -10 -46 -10 -21 0 -39 5 -39 10 0 6 21 10
46 10 27 0 43 -4 39 -10z m950 0 c-3 -5 -24 -10 -46 -10 -21 0 -39 5 -39 10 0
6 21 10 46 10 27 0 43 -4 39 -10z m760 0 c-3 -5 -24 -10 -46 -10 -21 0 -39 5
-39 10 0 6 21 10 46 10 27 0 43 -4 39 -10z m-2595 -115 c0 -50 -4 -85 -10 -85
-6 0 -10 35 -10 85 0 50 4 85 10 85 6 0 10 -35 10 -85z m190 0 c0 -50 -4 -85
-10 -85 -6 0 -10 35 -10 85 0 50 4 85 10 85 6 0 10 -35 10 -85z m190 0 c0 -50
-4 -85 -10 -85 -6 0 -10 35 -10 85 0 50 4 85 10 85 6 0 10 -35 10 -85z m190 0
c0 -50 -4 -85 -10 -85 -6 0 -10 35 -10 85 0 50 4 85 10 85 6 0 10 -35 10 -85z
m950 0 c0 -50 -4 -85 -10 -85 -6 0 -10 35 -10 85 0 50 4 85 10 85 6 0 10 -35
10 -85z m190 -6 c0 -43 -4 -79 -9 -79 -14 0 -16 14 -13 95 5 99 22 87 22 -16z
m380 0 c0 -64 -3 -79 -15 -79 -12 0 -15 15 -15 78 0 43 3 82 6 85 17 16 24
-10 24 -84z m190 0 c0 -56 -4 -79 -11 -77 -11 4 -22 145 -12 161 13 22 23 -13
23 -84z m188 1 c-2 -48 -7 -75 -15 -78 -10 -3 -13 17 -13 76 0 43 3 82 7 85
16 17 24 -15 21 -83z m192 -1 c0 -64 -3 -79 -15 -79 -12 0 -15 15 -15 78 0 43
3 82 6 85 17 16 24 -10 24 -84z m190 0 c0 -43 -4 -79 -9 -79 -9 0 -20 158 -12
166 13 13 21 -18 21 -87z m-2085 48 c-20 -28 -19 -71 1 -102 14 -22 14 -25 1
-25 -15 0 -47 56 -47 82 0 22 40 79 50 73 6 -4 4 -14 -5 -28z m190 -7 c8 -16
15 -36 15 -45 0 -27 -30 -75 -46 -75 -15 0 -15 2 0 25 20 31 21 74 0 103 -13
20 -13 22 0 22 9 0 22 -13 31 -30z m951 -6 c16 -38 12 -68 -14 -96 -23 -27
-37 -22 -18 7 20 31 21 74 0 103 -14 20 -14 22 1 22 9 0 23 -16 31 -36z m-768
-3 c28 -25 28 -37 -3 -57 -30 -20 -49 -9 -21 12 18 13 18 15 3 32 -32 35 -17
44 21 13z m302 12 c0 -3 -8 -15 -17 -26 -17 -18 -17 -19 0 -28 17 -10 24 -29
10 -29 -5 1 -19 10 -32 21 l-24 20 23 24 c23 24 40 32 40 18z m-1121 -117 c-8
-8 -78 -10 -85 -3 -4 4 14 7 41 7 27 0 46 -2 44 -4z m561 -6 c-17 -9 -66 -7
-77 4 -3 3 16 6 43 6 34 -1 44 -3 34 -10z m951 1 c-15 -10 -78 -8 -88 2 -3 4
18 7 48 7 34 0 49 -3 40 -9z m-1831 -116 c0 -50 -4 -85 -10 -85 -6 0 -10 35
-10 85 0 50 4 85 10 85 6 0 10 -35 10 -85z m2090 -6 c0 -60 -3 -80 -12 -77
-13 5 -24 128 -14 155 13 34 26 -4 26 -78z m190 5 c0 -63 -3 -85 -12 -82 -8 3
-12 29 -11 84 2 93 1 84 13 84 6 0 10 -35 10 -86z m185 1 c0 -54 -4 -80 -12
-82 -10 -4 -13 17 -13 82 0 65 3 86 13 83 8 -3 12 -29 12 -83z m195 -1 c0 -64
-3 -85 -12 -82 -8 3 -14 29 -16 73 -3 72 1 95 18 95 6 0 10 -34 10 -86z m190
0 c0 -61 -3 -85 -12 -82 -7 3 -11 31 -10 84 1 43 1 80 2 82 0 1 5 2 10 2 6 0
10 -35 10 -86z m-2350 67 c0 -16 -51 -120 -62 -127 -14 -9 -5 27 22 89 19 42
40 62 40 38z m167 -56 c25 -65 28 -79 14 -70 -11 6 -61 112 -61 127 0 27 27
-6 47 -57z m403 56 c0 -16 -49 -119 -59 -126 -18 -10 -13 14 15 76 24 52 44
75 44 50z m190 0 c0 -14 -51 -120 -61 -126 -17 -11 -9 24 18 80 25 50 43 70
43 46z m74 -63 c19 -42 22 -58 13 -58 -15 0 -69 115 -59 125 9 9 19 -6 46 -67z
m191 5 c15 -34 22 -60 16 -66 -9 -9 -61 92 -61 120 0 26 18 4 45 -54z m470 -6
c-27 -58 -45 -80 -45 -54 0 29 51 130 61 120 6 -6 0 -29 -16 -66z m3147 -29
c-5 -7 -10 -31 -10 -53 0 -22 5 -46 10 -52 8 -10 5 -13 -11 -13 -19 0 -21 6
-21 58 0 62 4 72 28 72 10 0 12 -4 4 -12z m63 -2 c10 4 13 -8 14 -56 0 -51 -2
-60 -14 -50 -10 8 -14 8 -18 -2 -2 -7 -4 19 -4 57 0 39 2 65 4 58 2 -7 10 -10
18 -7z m85 -1 c13 -16 6 -65 -10 -65 -6 0 -10 -11 -10 -25 0 -14 -4 -25 -10
-25 -11 0 -14 113 -3 123 10 11 19 8 33 -8z m200 0 c10 -12 9 -15 -7 -15 -16
0 -19 -6 -18 -37 1 -23 6 -37 13 -35 7 1 12 -5 12 -14 0 -9 -7 -14 -17 -12
-14 2 -19 15 -21 52 -5 72 10 95 38 61z m116 -1 c-3 -9 -6 -39 -6 -67 0 -68
-16 -49 -22 26 -4 51 -3 57 15 57 13 0 17 -5 13 -16z m132 -9 c3 -10 0 -15 -7
-11 -7 5 -11 -7 -11 -34 0 -25 4 -39 10 -35 6 3 10 -1 10 -9 0 -9 -9 -16 -20
-16 -18 0 -20 7 -20 58 0 32 3 62 7 66 11 11 28 1 31 -19z m82 -39 c0 -49 -12
-71 -34 -63 -19 8 -23 96 -4 115 19 19 38 -6 38 -52z m142 7 c-6 -75 -22 -94
-22 -26 0 28 -3 58 -6 67 -4 11 0 16 13 16 18 0 19 -6 15 -57z m62 5 c-2 -28
1 -57 7 -65 9 -10 7 -13 -10 -13 -19 0 -21 5 -21 65 0 49 3 65 14 65 10 0 13
-12 10 -52z m158 -10 c-4 -61 -8 -76 -16 -67 -2 2 -6 32 -8 67 -4 52 -2 62 12
62 14 0 16 -10 12 -62z m-4467 42 c-3 -5 -13 -10 -21 -10 -8 0 -14 5 -14 10 0
6 9 10 21 10 11 0 17 -4 14 -10z m3635 -38 c0 -26 5 -53 12 -60 9 -9 7 -12
-10 -12 -20 0 -22 5 -22 60 0 33 4 60 10 60 6 0 10 -22 10 -48z m57 -44 c-2
-18 -4 -4 -4 32 0 36 2 50 4 33 2 -18 2 -48 0 -65z m133 32 c0 -33 -4 -60 -10
-60 -6 0 -10 27 -10 60 0 33 4 60 10 60 6 0 10 -27 10 -60z m331 38 l2 -23 4
23 c9 44 23 21 23 -38 0 -33 -4 -60 -10 -60 -5 0 -10 7 -10 15 0 21 -18 19
-23 -3 -3 -9 -5 11 -6 46 -1 35 3 62 9 62 6 0 11 -10 11 -22z m219 7 c0 -21
18 -19 23 3 3 9 5 -11 6 -46 1 -40 -3 -61 -9 -57 -5 3 -10 14 -11 23 0 12 -3
11 -9 -5 -15 -37 -20 -27 -20 37 0 33 4 60 10 60 6 0 10 -7 10 -15z m-5762
-42 c-54 -2 -142 -2 -196 0 -53 1 -9 3 98 3 107 0 151 -2 98 -3z m595 0 c-40
-2 -107 -2 -150 0 -43 1 -10 3 72 3 83 0 118 -2 78 -3z m230 0 c-13 -2 -35 -2
-50 0 -16 2 -5 4 22 4 28 0 40 -2 28 -4z m290 0 c-13 -2 -35 -2 -50 0 -16 2
-5 4 22 4 28 0 40 -2 28 -4z m190 0 c-13 -2 -35 -2 -50 0 -16 2 -5 4 22 4 28
0 40 -2 28 -4z m255 0 c-26 -2 -71 -2 -100 0 -29 2 -8 3 47 3 55 0 79 -1 53
-3z m315 0 c-13 -2 -35 -2 -50 0 -16 2 -5 4 22 4 28 0 40 -2 28 -4z m185 0
c-16 -2 -40 -2 -55 0 -16 2 -3 4 27 4 30 0 43 -2 28 -4z m380 0 c-16 -2 -40
-2 -55 0 -16 2 -3 4 27 4 30 0 43 -2 28 -4z"/>
<path d="M2218 5104 c-126 -138 -184 -234 -244 -404 -49 -140 -57 -188 -61
-368 -5 -194 5 -256 59 -372 47 -101 165 -213 180 -170 2 7 26 3 62 -10 39
-13 85 -20 133 -20 74 0 74 0 120 43 50 48 50 67 0 68 -32 0 -76 18 -134 54
-54 33 -37 35 43 4 74 -28 128 -36 150 -21 28 18 79 143 73 177 -3 12 -13 19
-32 19 -16 1 -31 7 -35 13 -4 6 -29 14 -56 18 -106 16 -195 105 -246 245 -11
30 -22 44 -32 42 -12 -2 -18 10 -23 50 -20 152 -2 447 32 513 23 46 45 115 41
132 -2 13 -9 10 -30 -13z"/>
<path d="M4167 5113 c-4 -5 -2 -23 3 -39 10 -32 33 -145 49 -245 6 -37 11
-128 11 -203 0 -131 -1 -139 -25 -170 -14 -18 -25 -40 -25 -49 0 -23 -19 -64
-54 -117 -64 -98 -126 -146 -203 -155 -26 -3 -53 -12 -59 -20 -6 -8 -23 -15
-38 -15 -27 0 -28 -1 -21 -42 4 -24 19 -68 34 -98 25 -53 27 -55 70 -58 25 -2
54 1 65 7 38 19 106 39 106 31 0 -15 -73 -54 -124 -65 -62 -14 -68 -31 -28
-76 28 -31 33 -33 118 -37 79 -3 95 -1 144 22 60 28 73 27 45 -4 -29 -32 1
-24 62 16 55 37 110 108 139 182 8 21 19 46 24 57 30 69 45 287 29 410 -15
116 -20 138 -40 182 -10 24 -19 46 -19 50 0 37 -136 308 -178 355 -16 18 -41
46 -54 62 -14 17 -28 25 -31 19z"/>
<path d="M2996 4461 c-3 -5 -20 -11 -38 -14 -103 -17 -266 -81 -333 -130 -30
-23 -10 -32 29 -13 68 32 95 12 96 -71 0 -65 -16 -69 -31 -7 -14 53 -24 59
-73 46 -29 -8 -38 -7 -45 5 -7 14 -11 13 -35 -2 -30 -20 -50 -51 -41 -64 3 -6
20 -5 41 0 69 20 134 -54 105 -118 -6 -13 -11 -33 -11 -43 0 -28 -45 -159 -75
-218 -33 -65 -123 -148 -178 -163 -37 -10 -94 -11 -227 -6 -30 2 -37 -2 -51
-33 -28 -58 -31 -126 -9 -170 11 -21 24 -42 30 -45 23 -14 50 -86 50 -132 0
-41 -36 -173 -62 -225 -4 -10 -8 -43 -8 -74 0 -61 9 -79 80 -154 56 -60 131
-161 164 -222 24 -44 26 -54 16 -83 -9 -26 -8 -48 2 -91 12 -51 18 -60 58 -85
25 -16 51 -29 57 -29 7 0 53 -39 102 -88 92 -89 141 -169 141 -228 0 -18 19
-42 66 -86 73 -69 141 -153 174 -216 12 -22 27 -45 33 -49 33 -24 99 -36 194
-35 127 0 153 13 197 95 17 32 74 103 127 158 70 73 100 112 109 142 35 114
104 208 204 275 39 26 83 53 98 59 39 17 55 50 60 122 3 46 1 64 -9 68 -7 3
-13 8 -13 13 0 20 134 207 198 274 l72 77 0 82 c0 79 -22 177 -46 208 -21 27
-23 48 -12 111 9 47 22 77 52 118 38 51 41 60 40 115 -1 40 -8 74 -23 103 -23
45 -30 48 -62 31 -35 -18 -188 -13 -236 8 -91 41 -130 92 -213 278 -15 32 -30
171 -23 206 8 42 56 64 103 48 50 -18 60 3 19 41 -79 74 -238 153 -379 190
-25 6 -59 16 -76 21 -39 12 -401 12 -408 0z m748 -151 c14 -5 26 -17 26 -26 0
-13 -7 -15 -39 -9 -39 6 -40 6 -50 -32 -6 -21 -15 -45 -20 -53 -9 -12 -11 -12
-17 3 -7 19 -1 56 15 100 11 29 39 35 85 17z m-1344 -800 c-9 -31 -49 -88 -62
-89 -13 -1 -9 18 12 59 11 22 20 49 20 60 0 17 3 19 19 10 16 -8 18 -15 11
-40z m1635 27 c-4 -15 3 -39 19 -67 37 -64 32 -69 -19 -19 -45 44 -56 74 -33
97 21 21 39 14 33 -11z m-721 -78 c-24 -61 -34 -69 -34 -28 0 22 8 44 21 58
29 31 33 21 13 -30z m-194 -35 c0 -24 -5 -46 -10 -49 -12 -8 -17 5 -25 75 l-6
54 20 -18 c15 -14 21 -31 21 -62z m-770 -174 c76 -17 159 -42 255 -76 138 -49
165 -59 290 -115 61 -26 117 -50 124 -51 18 -4 40 98 41 190 0 98 18 72 23
-35 3 -54 8 -115 12 -135 11 -60 0 -88 -35 -88 -17 0 -38 4 -48 9 -62 32 -73
34 -84 23 -15 -15 -55 -16 -63 -2 -4 6 -11 7 -17 4 -6 -4 -27 -8 -46 -10 -19
-2 -43 -12 -54 -24 -27 -29 -52 -23 -59 15 -3 11 -9 19 -14 18 -22 -4 -154 92
-155 112 0 6 -10 24 -21 40 l-21 30 6 -33 c8 -46 -8 -37 -36 18 -19 37 -31 48
-68 60 -65 22 -112 49 -104 61 3 6 13 7 23 3 9 -3 32 -10 51 -14z m1758 -4
c-10 -7 -46 -26 -81 -42 -53 -24 -67 -36 -82 -69 -18 -39 -19 -40 -22 -12 -5
33 -19 35 -27 5 -10 -41 -86 -117 -141 -143 -29 -14 -56 -32 -59 -40 -7 -20
-35 -19 -58 2 -25 23 -173 27 -245 7 -83 -23 -83 -22 -78 124 3 69 7 128 10
130 11 12 25 -56 25 -123 0 -41 4 -76 10 -80 5 -3 38 7 72 23 255 118 571 226
673 231 19 0 19 -1 3 -13z m-738 -482 c0 -65 21 -151 47 -189 15 -22 18 -75 4
-75 -10 0 -71 -88 -71 -102 0 -4 16 -8 35 -8 19 0 35 5 35 10 0 6 6 10 14 10
16 0 96 42 126 67 32 27 124 122 133 140 10 16 90 94 122 117 20 14 19 15 -8
25 -16 6 -37 11 -48 11 -12 0 -19 5 -17 12 5 14 26 14 116 3 89 -11 89 -15 5
-81 -71 -56 -160 -218 -217 -394 -21 -63 -42 -119 -47 -124 -5 -6 -9 -17 -9
-25 0 -25 -71 -119 -109 -145 -67 -47 -143 -64 -286 -64 -144 -1 -204 12 -271
57 -55 38 -110 122 -139 213 -13 42 -29 85 -35 95 -5 10 -18 45 -29 78 -42
127 -98 224 -172 298 -41 39 -59 46 -59 22 0 -8 4 -15 9 -15 12 0 51 -62 45
-72 -5 -9 -124 109 -124 123 0 13 18 11 26 -3 5 -7 10 -4 15 10 7 17 16 22 46
22 21 0 54 5 73 10 38 11 94 4 84 -11 -3 -5 -14 -9 -25 -9 -11 0 -30 -5 -41
-11 -20 -11 -17 -15 49 -83 39 -39 100 -102 136 -141 39 -42 87 -81 119 -97
128 -65 174 -61 122 9 -16 21 -35 42 -41 46 -19 12 -16 45 12 112 19 46 25 78
25 138 0 42 3 77 8 77 7 0 37 -60 47 -96 3 -13 -1 -26 -10 -34 -8 -6 -17 -28
-20 -49 -3 -20 -13 -50 -22 -68 l-15 -31 53 -64 c51 -61 93 -133 120 -206 9
-26 14 -30 25 -21 8 6 14 16 14 21 0 26 67 145 112 200 l52 61 -17 48 c-9 25
-17 61 -17 78 0 19 -5 30 -12 29 -7 -2 -13 2 -13 7 0 26 30 135 37 135 4 0 8
-30 8 -66z m578 -49 c-18 -21 -45 -52 -60 -69 -37 -44 -47 -25 -12 25 25 37
93 94 101 85 2 -2 -11 -20 -29 -41z m-1128 -691 c0 -19 59 -64 91 -71 16 -3
29 -10 29 -16 0 -14 -79 0 -108 19 -28 18 -56 80 -47 103 6 14 8 14 21 -3 8
-11 14 -25 14 -32z m790 8 c0 -54 -93 -117 -153 -104 -23 5 -11 22 16 22 35 0
86 37 104 75 20 42 33 45 33 7z"/>
<path d="M2560 3117 c0 -17 57 -71 97 -91 35 -18 168 -23 178 -6 5 8 -67 50
-88 50 -5 0 -23 7 -40 15 -42 19 -119 45 -134 45 -7 0 -13 -6 -13 -13z"/>
<path d="M3745 3103 c-38 -14 -92 -33 -118 -43 -93 -33 -84 -54 21 -51 89 3
133 27 191 104 12 15 11 17 -5 17 -11 -1 -50 -12 -89 -27z"/>
<path d="M3650 2497 c-18 -18 -44 -39 -56 -47 -12 -8 -39 -27 -61 -43 -22 -15
-69 -35 -104 -43 -35 -9 -68 -20 -74 -25 -5 -5 -19 -9 -31 -9 -17 0 -30 -16
-58 -69 -20 -38 -36 -78 -36 -89 0 -25 -16 -37 -26 -20 -5 8 -10 4 -15 -10
-12 -33 -33 -27 -64 19 -20 28 -34 39 -47 36 -15 -4 -18 1 -18 30 0 47 28 41
55 -12 11 -22 24 -43 30 -47 19 -14 25 21 9 58 -29 72 -58 99 -121 118 -32 10
-68 22 -81 27 -13 5 -30 9 -38 9 -19 0 -65 32 -129 90 -58 52 -68 42 -35 -34
18 -42 102 -155 123 -164 4 -2 7 -10 7 -19 0 -11 -6 -10 -30 7 l-30 21 0 -23
c0 -44 64 -141 125 -190 66 -53 112 -69 230 -75 119 -7 228 22 301 80 29 23
90 130 99 176 l7 34 -47 -34 c-26 -18 -49 -37 -51 -41 -9 -15 -34 -8 -28 7 12
30 -22 14 -66 -30 l-45 -45 -10 37 c-6 20 -15 38 -21 40 -6 2 -21 -19 -34 -47
-13 -27 -27 -50 -32 -50 -12 0 -10 9 11 39 11 15 23 39 26 54 10 37 31 53 50
37 8 -7 15 -21 15 -31 0 -31 15 -22 65 36 25 30 50 55 55 55 5 0 10 -14 12
-32 2 -17 8 -33 13 -34 17 -4 129 132 146 178 8 24 23 56 33 71 26 39 16 41
-24 4z m-659 -249 c29 -35 56 -64 60 -66 5 -2 9 -10 9 -18 0 -20 -25 -6 -72
42 -33 33 -38 35 -38 16 0 -31 -17 -36 -35 -8 -11 16 -14 33 -9 52 14 60 21
59 85 -18z"/>
<path d="M1620 3969 c0 -28 45 -122 91 -189 48 -71 214 -247 251 -266 32 -16
48 -12 48 15 0 9 6 23 13 30 10 10 7 16 -13 29 -44 30 -274 265 -325 334 -53
72 -65 80 -65 47z"/>
<path d="M4750 3972 c0 -5 -13 -24 -30 -42 -16 -18 -30 -36 -30 -39 0 -3 -23
-30 -50 -60 -28 -29 -50 -57 -50 -61 0 -4 -34 -36 -76 -71 -118 -99 -134 -118
-134 -161 0 -72 19 -64 158 67 95 90 150 162 203 267 29 57 38 108 19 108 -5
0 -10 -4 -10 -8z"/>
<path d="M1654 3785 c-4 -9 -2 -27 5 -41 6 -14 11 -36 11 -49 0 -13 5 -27 10
-30 6 -3 10 -18 10 -33 0 -15 11 -63 24 -107 14 -44 32 -105 41 -136 18 -65
46 -99 79 -99 29 0 59 -32 50 -54 -6 -17 55 -78 138 -139 39 -28 42 -28 52
-11 6 11 21 59 33 107 21 82 21 91 7 125 -19 45 -59 89 -100 108 -17 8 -41 24
-53 35 -30 28 -51 18 -51 -26 0 -19 -4 -35 -10 -35 -5 0 -10 7 -10 15 0 8 -5
24 -12 34 -9 15 -9 26 -1 44 10 22 8 29 -10 49 -12 13 -30 30 -40 37 -15 12
-18 10 -28 -18 -11 -30 -39 -39 -30 -10 18 60 12 84 -38 151 -28 36 -51 71
-51 77 0 18 -20 23 -26 6z"/>
<path d="M4695 3743 c-14 -21 -36 -54 -49 -73 -26 -36 -33 -84 -17 -110 6 -8
7 -18 5 -22 -8 -12 -44 11 -44 27 0 24 -18 17 -49 -17 -23 -26 -28 -39 -24
-61 3 -16 0 -47 -8 -70 l-14 -42 -5 49 c-3 27 -10 51 -16 53 -6 2 -27 -9 -47
-24 -20 -16 -57 -43 -82 -62 -68 -50 -80 -80 -65 -155 18 -83 49 -166 63 -166
20 0 177 153 195 190 12 25 25 36 43 38 19 2 31 14 47 48 12 24 22 52 22 62 0
9 8 37 16 62 9 25 23 72 31 105 8 33 19 78 24 100 29 111 19 135 -26 68z"/>
<path d="M2165 3760 c3 -5 8 -10 11 -10 2 0 4 5 4 10 0 6 -5 10 -11 10 -5 0
-7 -4 -4 -10z"/>
<path d="M5431 134 c0 -11 3 -14 6 -6 3 7 2 16 -1 19 -3 4 -6 -2 -5 -13z"/>
<path d="M5952 110 c0 -19 2 -27 5 -17 2 9 2 25 0 35 -3 9 -5 1 -5 -18z"/>
<path d="M5275 518 c-2 -7 -9 -51 -15 -98 -6 -47 -13 -102 -16 -122 -5 -34 -3
-38 15 -38 17 0 21 6 21 30 0 17 5 30 10 30 6 0 10 -13 10 -30 0 -23 4 -30 20
-30 17 0 19 5 14 43 -3 23 -11 82 -17 131 -7 54 -17 91 -24 94 -7 2 -15 -2
-18 -10z m22 -150 c-3 -8 -6 -5 -6 6 -1 11 2 17 5 13 3 -3 4 -12 1 -19z"/>
<path d="M5407 524 c-4 -4 -7 -65 -7 -136 l0 -128 33 0 c18 0 38 5 45 12 14
14 17 215 4 235 -10 15 -64 28 -75 17z m53 -134 c0 -69 -10 -106 -23 -83 -7
16 5 173 14 167 5 -3 9 -41 9 -84z"/>
<path d="M5564 449 c14 -171 17 -189 37 -189 20 0 21 6 40 157 6 51 8 97 4
103 -12 19 -24 -1 -31 -50 -9 -65 -22 -64 -26 2 -2 33 -8 53 -17 56 -12 4 -13
-9 -7 -79z"/>
<path d="M5717 524 c-4 -4 -7 -65 -7 -136 0 -118 2 -129 18 -126 15 3 17 17
17 132 0 121 -7 151 -28 130z"/>
<path d="M5832 514 c-31 -22 -28 -66 9 -131 19 -34 28 -60 24 -71 -6 -15 -8
-14 -16 6 -4 12 -13 22 -19 22 -17 0 -23 -29 -12 -56 13 -26 49 -33 70 -12 20
20 14 80 -13 123 -13 22 -24 54 -24 70 0 29 1 29 11 8 6 -13 17 -23 25 -23 22
0 12 50 -12 66 -18 12 -24 11 -43 -2z"/>
<path d="M5988 519 c-16 -9 -18 -26 -18 -122 0 -120 6 -137 47 -137 34 0 43
29 43 134 0 83 -3 99 -20 116 -23 23 -28 24 -52 9z m37 -124 c0 -62 -4 -90
-12 -92 -10 -4 -13 19 -13 92 0 73 3 96 13 93 8 -3 12 -31 12 -93z"/>
<path d="M6137 524 c-4 -4 -7 -65 -7 -136 0 -107 2 -128 15 -128 12 0 15 13
15 55 0 70 18 72 22 3 2 -40 7 -54 20 -56 15 -3 17 8 16 112 0 70 -5 121 -12
130 -13 17 -58 30 -69 20z m40 -91 c-4 -17 -4 -17 -12 0 -4 9 -4 25 0 35 8 16
8 16 12 0 3 -10 3 -26 0 -35z"/>
<path d="M6286 522 c-2 -4 2 -37 9 -72 8 -36 14 -93 15 -127 0 -49 3 -63 15
-63 11 0 15 13 16 53 0 28 6 86 14 127 8 43 10 79 4 84 -5 6 -11 2 -15 -10
-18 -58 -21 -60 -29 -21 -7 35 -18 47 -29 29z"/>
</g>
</svg>
