<svg height="512" viewBox="0 0 58 58" width="512" xmlns="http://www.w3.org/2000/svg"><g id="Page-1" fill="none" fill-rule="evenodd"><g id="005---Heavy-Rain" fill-rule="nonzero" transform="translate(-1)"><path id="Shape" d="m59 29c0 7.1797017-5.8202983 13-13 13h-29c-2.9437226.0042844-5.7029248-1.4333585-7.38608488-3.848414-1.68316006-2.4150555-2.07686864-5.5013166-1.05391512-8.261586-4.44381528-.7150453-7.6761203-4.6030228-7.56760336-9.1026904.10851694-4.4996675 3.52448528-8.2273109 7.99760336-8.7273096.02 0 .29-.03.3-.03 1.1575327-5.72201404 5.5297871-10.25263324 11.2070138-11.61293623 5.6772266-1.36030298 11.6279587.69685686 15.2529862 5.27293623.01-.01.02-.01.03-.02.5409466-.38888948 1.1247729-.7143559 1.74-.97 3.3568569-1.3975112 7.2247331-.64028746 9.8067818 1.91989807 2.5820488 2.56018552 3.3721347 6.42148303 2.0032182 9.79010193 0 .01-.01.01-.01.02 5.7057627 1.5071415 9.680493 6.6685423 9.68 12.57z" fill="#95a5a5"/><g fill="#7f8c8d"><path id="Shape" d="m49.86 14.56c-.1094574.63397-.2871573 1.2542431-.53 1.85-.0842247-.0001072-.1681411-.0101772-.25-.03-2.5578919-.6533991-5.2583424-.4640168-7.7.54-.5108634.2098682-1.0951318-.0341366-1.305-.545s.0341366-1.0951318.545-1.305c2.8340776-1.1686272 5.9700394-1.3896178 8.94-.63.1044649.027781.2051937.0680725.3.12z"/><path id="Shape" d="m39.39 9.92c-.1236795.0513887-.2560772.0785472-.39.08-.4012802-.00032704-.7635008-.24049505-.92-.61-.5450505-1.26070102-1.26918-2.43614837-2.15-3.49-.0591239-.0703136-.1094924-.14754532-.15-.23.5409466-.38888948 1.1247729-.7143559 1.74-.97.9871402 1.17878452 1.7957717 2.49618003 2.4 3.91.2149432.50810558-.0222174 1.09429492-.53 1.31z"/><path id="Shape" d="m14.9 12.38c-.171137.340772-.5186805.5570213-.9.56-.1562584-.0031715-.3098995-.0407282-.45-.11-1.3193271-.6535992-2.7934378-.9304275-4.26-.8.13950082-.6855281.32662106-1.3604975.56-2.02 1.5938992-.03204934 3.1719643.3213 4.6 1.03.4892153.250167.6890609.8452626.45 1.34z"/><path id="Shape" d="m18.053 16.974c-.3788033.000366-.7252962-.2133369-.895-.552-.2939667-.5846235-.6579748-1.1313073-1.084-1.628-.3418991-.4209178-.2860104-1.0376382.1259866-1.390236.4119971-.3525979 1.0299495-.3125684 1.3930134.090236.5317773.6206523.9861116 1.3036649 1.353 2.034.1552547.3098275.1390303.6779501-.0428799.9729176s-.5035699.4747243-.8501201.4750824z"/></g><path id="Shape" d="m48 27c-1.6568542 0-3-1.3431458-3-3 0-.5522847.4477153-1 1-1s1 .4477153 1 1c-.0052636.4682378.3151034.8774262.770926.9846645.4558227.1072382.9250221-.1161943 1.129074-.5376645.2471474-.4940187.8479813-.6941474 1.342-.447.4940187.2471475.6941474.8479813.447 1.342-.5068381 1.0202121-1.5498383 1.6633115-2.689 1.658z" fill="#3f5c6c"/><path id="Shape" d="m32 27c-1.1370715.0033543-2.177496-.6389644-2.684-1.657-.1607695-.3193954-.1389313-.7002985.0572885-.9992267.1962199-.2989282.5370107-.4704673.8940001-.45.3569893.0204672.6759419.2298313.8367114.5492267.2061473.4159597.6714576.6353449 1.1235224.52972.4520648-.1056248.7719888-.5084798.7724776-.97272 0-.5522847.4477153-1 1-1s1 .4477153 1 1c0 1.6568542-1.3431458 3-3 3z" fill="#3f5c6c"/><path id="Shape" d="m45 32c-.0730087 1.0728748-.9271252 1.9269913-2 2-.0601734.0016565-.1203804-.0016884-.18-.01-.94-.1-1.88-.99-2.82-.99s-1.88.89-2.82.99c-.0596196.0083116-.1198266.0116565-.18.01-1.0728748-.0730087-1.9269913-.9271252-2-2 0-2 2-4 5-4s5 2 5 4z" fill="#802d40"/><path id="Shape" d="m27.048 32.092c-.5963799.8978082-.3740361 2.1067237.5027611 2.7335852.8767972.6268614 2.0926354.4461665 2.7492389-.4085852.642-.9.7-4.417.7-4.417s-3.31 1.194-3.952 2.092z" fill="#67b9cc"/><path id="Shape" d="m52.952 32.092c.5963799.8978082.3740361 2.1067237-.5027611 2.7335852-.8767972.6268614-2.0926354.4461665-2.7492389-.4085852-.645-.898-.7-4.417-.7-4.417s3.31 1.194 3.952 2.092z" fill="#67b9cc"/><path id="Shape" d="m29 54c0 2.209139 1.790861 4 4 4s4-1.790861 4-4c0-1.768-2.562-5.83-3.585-7.382-.0928809-.1382147-.2484762-.2211183-.415-.2211183s-.3221191.0829036-.415.2211183c-1.023 1.552-3.585 5.614-3.585 7.382z" fill="#2fa8cc"/><path id="Shape" d="m30.034 52.034c0 1.6380766 1.3279234 2.966 2.966 2.966s2.966-1.3279234 2.966-2.966c0-1.311-1.9-4.323-2.658-5.474-.0679728-.103953-.1837964-.1666049-.308-.1666049s-.2400272.0626519-.308.1666049c-.758 1.151-2.658 4.163-2.658 5.474z" fill="#67b9cc"/><path id="Shape" d="m13 54c0 2.209139 1.790861 4 4 4s4-1.790861 4-4c0-1.768-2.562-5.83-3.585-7.382-.0928809-.1382147-.2484762-.2211183-.415-.2211183s-.3221191.0829036-.415.2211183c-1.023 1.552-3.585 5.614-3.585 7.382z" fill="#2fa8cc"/><path id="Shape" d="m14.034 52.034c0 1.6380766 1.3279234 2.966 2.966 2.966s2.966-1.3279234 2.966-2.966c0-1.311-1.9-4.323-2.658-5.474-.0679728-.103953-.1837964-.1666049-.308-.1666049s-.2400272.0626519-.308.1666049c-.758 1.151-2.658 4.163-2.658 5.474z" fill="#67b9cc"/><path id="Shape" d="m45 54c0 2.209139 1.790861 4 4 4s4-1.790861 4-4c0-1.768-2.562-5.83-3.585-7.382-.0928809-.1382147-.2484762-.2211183-.415-.2211183s-.3221191.0829036-.415.2211183c-1.023 1.552-3.585 5.614-3.585 7.382z" fill="#2fa8cc"/><path id="Shape" d="m46.034 52.034c0 1.6380766 1.3279234 2.966 2.966 2.966s2.966-1.3279234 2.966-2.966c0-1.311-1.9-4.323-2.658-5.474-.0679728-.103953-.1837964-.1666049-.308-.1666049s-.2400272.0626519-.308.1666049c-.758 1.151-2.658 4.163-2.658 5.474z" fill="#67b9cc"/><path id="Shape" d="m43 33c.00214.3383268-.0589059.6740794-.18.99-.94-.1-1.88-.99-2.82-.99s-1.88.89-2.82.99c-.1210941-.3159206-.18214-.6516732-.18-.99 0-1.6568542 1.3431458-3 3-3s3 1.3431458 3 3z" fill="#ff5364"/></g></g></svg>