<svg height="512" viewBox="0 0 58 58" width="512" xmlns="http://www.w3.org/2000/svg"><g id="Page-1" fill="none" fill-rule="evenodd"><g id="024---Sunny-and-Rain" fill-rule="nonzero"><path id="Shape" d="m45.051 31.513c-.234867.1985728-.3461403.5072419-.292.81l1.028 6.233c.0777931.4648595-.2240608.9086068-.685 1.007l-6.2 1.251c-.2994074.0627161-.5451968.2756076-.65.563l-2.036 5.723c-.1591206.4461299-.6452755.6836577-1.095.535l-5.982-2.005c-.29082-.1015237-.6137126-.0401475-.847.161l-4.6 3.923c-.3701594.3121319-.9227379.2674971-1.238-.1l-3.923-4.6c-.1979855-.2357626-.5070028-.347543-.81-.293l-6.224 1.03c-.4681763.0772044-.9122928-.2336772-1-.7l-1.1-5.976c-.05865552-.2999605-.26761147-.5485917-.553-.658l-5.907-2.217c-.44551817-.1689496-.67463523-.6627058-.516-1.112l2.036-5.716c.10007033-.2892315.04249343-.6096924-.152-.846l-4.014-4.897c-.29253225-.3625034-.24849788-.8909158.1-1.2l4.74-4.193c.22935562-.202486.33692464-.5096637.284-.811l-1.1-5.967c-.08657085-.4691663.21778057-.9214725.685-1.018l6.18-1.253c.2996427-.06203533.5458938-.27462075.651-.562l2.031-5.725c.159129-.44872525.6487651-.68686645 1.1-.535l5.982 2c.2906918.10115751.6132404.04022743.847-.16l4.6-3.923c.3701594-.31213189.9227379-.26749712 1.238.1l3.923 4.6c.1985959.23488711.5070937.34647954.81.293l6.238-1.022c.4650568-.07719448.9086032.22496321 1.007.686l1.251 6.2c.0623471.2992633.2748817.5450774.562.65l5.725 2.037c.4491234.1587207.6877699.6484804.536 1.1l-2.01 5.974c-.1011939.2903663-.0402432.6126431.16.846l3.923 4.6c.3126936.3699793.2680226.9230058-.1 1.238z" fill="#f29c1f"/><circle id="Oval" cx="25.039" cy="25.001" fill="#e57e25" r="19"/><circle id="Oval" cx="25.039" cy="25.001" fill="#f0c419" r="17"/><ellipse id="Oval" cx="18.426" cy="16.91" fill="#f3d55b" rx="7.815" ry="5.136" transform="matrix(.797 -.604 .604 .797 -6.473 14.563)"/><path id="Shape" d="m58 39.53c.0343766 4.6413365-3.6986869 8.4325893-8.34 8.47h-19.46c-5.3111673-.0311129-9.7176829-4.1163654-10.15-9.41-.03-.31-.05-.62-.05-.94-.0364889-4.9460485 3.4479312-9.2197107 8.3-10.18.0153542-.0080837.0327178-.0115564.05-.01 0-.02-.01-.03 0-.05-.0082848-.0394323-.0116438-.0797403-.01-.12.0027505-.58232.0461896-1.1637361.13-1.74.01-.04.01-.08.02-.12.8555967-5.4047078 5.4980972-9.3954808 10.97-9.43 2.6857564-.0024593 5.2792906.9794549 7.29 2.76 2.4468947 2.158973 3.845967 5.2668079 3.84 8.53-.0006948.5960558-.0475011 1.1911647-.14 1.78-.01.04-.01.09-.02.13-.1067794.6292632-.2673687 1.2482011-.48 1.85v.02c4.537007.1626777 8.1127229 3.9205108 8.05 8.46z" fill="#ecf0f1"/><path id="Shape" d="m21.19 25.755c-.9498064.0019066-1.8687891-.336946-2.59-.955-.4200126-.3589851-.4694851-.9904874-.1105-1.4105s.9904874-.4694851 1.4105-.1105c.8403012.7179702 2.1035298.6188012 2.8215-.2215s.6188012-2.1035298-.2215-2.8215c-.2718791-.2322226-.3992165-.591851-.3340453-.9434165.0651711-.3515655.3129497-.6416571.65-.761.3370502-.1193429.7121662-.0498061.9840453.1824165 1.2311975 1.0500867 1.7084245 2.7385362 1.2090724 4.2777493-.4993522 1.539213-1.8769016 2.6259351-3.4900724 2.7532507-.114.005-.219.01-.329.01z" fill="#35495e"/><path id="Shape" d="m33.812 23.86c-.3787721 0-.7250352-.2140024-.8944272-.5527864s-.132836-.744196.0944272-1.0472136c1.5099535-2.0502373 3.9047415-3.2604386 6.451-3.26.5522847 0 1 .4477153 1 1s-.4477153 1-1 1c-1.9154822.0025758-3.7156075.9158173-4.849 2.46-.1892763.2523697-.4865391.4006305-.802.4z" fill="#fff"/><path id="Shape" d="m35.66 27.86c-.1734743.3433225-.5253396.559855-.91.56-.1491349.0003415-.2963195-.0338875-.43-.1-1.857801-.8819447-3.9388067-1.181721-5.97-.86 0-.02-.01-.03 0-.05-.0082848-.0394323-.0116438-.0797403-.01-.12.0027505-.58232.0461896-1.1637361.13-1.74.01-.04.01-.08.02-.12 2.2915081-.2793049 4.6151977.0987282 6.7 1.09.2408.1145232.4258895.3204738.5141435.5720915.0882539.2516176.0723624.5280615-.0441435.7679085z" fill="#d1d4d1"/><path id="Shape" d="m50.45 29.07c-.01.04-.01.09-.02.13-.1067794.6292632-.2673687 1.2482011-.48 1.85-1.2476267.0252453-2.4779247.2971344-3.62.8-.1253777.0582167-.26177.088905-.4.09-.478667.0088487-.8964554-.3228028-.9964341-.7909958s.1459034-.9415658.5864341-1.1290042c1.4806463-.6525264 3.0819571-.9864167 4.7-.98.0776758-.0005314.1550594.0095621.23.03z" fill="#d1d4d1"/><path id="Shape" d="m13.072 27.653c-.2379677.0005886-.46825-.0842149-.649-.239-1.2603138-1.0769553-1.4089553-2.9716862-.332-4.232s2.9716862-1.4089553 4.232-.332c.2718791.2322226.3992165.591851.3340454.9434165-.0651712.3515656-.3129498.6416571-.6500001.761-.3370502.1193429-.7121662.0498062-.9840453-.1824165-.2016855-.1722849-.4635574-.2573812-.7279923-.236564-.2644348.0208172-.5097653.1458422-.6820077.347564-.1721665.201812-.2570922.4637619-.2360871.7282012.0210052.2644394.1462197.5096973.3480871.6817988.3182117.2721225.4332037.7136768.2881468 1.1064462-.1450569.3927695-.5194472.653586-.9381468.6535538z" fill="#3f5c6c"/><path id="Shape" d="m22.159 17c-.2380005-.0002198-.4681196-.0853178-.649-.24-1.2603138-1.0769553-1.4089553-2.9716862-.332-4.232s2.9716862-1.4089553 4.232-.332c.2718791.2322226.3992165.591851.3340453.9434165-.0651711.3515655-.3129497.6416571-.65.761-.3370502.1193429-.7121662.0498061-.9840453-.1824165-.2718791-.2322227-.6469951-.3017594-.9840453-.1824165-.3370503.1193429-.5848289.4094344-.6500001.761-.0651711.3515655.0621663.7111939.3340454.9434165.3182117.2721225.4332037.7136768.2881468 1.1064462-.1450569.3927695-.5194472.653586-.9381468.6535538z" fill="#3f5c6c"/><g fill="#2fa8cc"><path id="Shape" d="m41 56c0 1.1045695-.8954305 2-2 2s-2-.8954305-2-2c0-1.1 2-4 2-4s2 2.9 2 4z"/><path id="Shape" d="m31 56c0 1.1045695-.8954305 2-2 2s-2-.8954305-2-2c0-1.1 2-4 2-4s2 2.9 2 4z"/><path id="Shape" d="m51 56c0 1.1045695-.8954305 2-2 2s-2-.8954305-2-2c0-1.1 2-4 2-4s2 2.9 2 4z"/></g><path id="Shape" d="m29 37c-.5522847 0-1-.4477153-1-1s-.4477153-1-1-1-1 .4477153-1 1-.4477153 1-1 1-1-.4477153-1-1c0-1.6568542 1.3431458-3 3-3s3 1.3431458 3 3c0 .5522847-.4477153 1-1 1z" fill="#3f5c6c"/><path id="Shape" d="m39 37c-.5522847 0-1-.4477153-1-1s-.4477153-1-1-1-1 .4477153-1 1-.4477153 1-1 1-1-.4477153-1-1c0-1.6568542 1.3431458-3 3-3s3 1.3431458 3 3c0 .5522847-.4477153 1-1 1z" fill="#3f5c6c"/><path id="Shape" d="m29 40h6v1c0 1.6568542-1.3431458 3-3 3s-3-1.3431458-3-3z" fill="#802d40"/></g></g></svg>